HIERARCHY
ROOT root
{
	OFFSET 0.000000 0.000000 0.000000
	CHANNELS 6 Xposition Yposition Zposition Zrotation Yrotation Xrotation
	JOINT lhip
	{
		OFFSET 0.058581 -0.082280 -0.017664
		CHANNELS 3 Zrotation Yrotation Xrotation
		JOINT lknee
		{
			OFFSET 0.043451 -0.386469 0.008037
			CHANNELS 3 Zrotation Yrotation Xrotation
			JOINT lankle
			{
				OFFSET -0.014790 -0.426874 -0.037428
				CHANNELS 3 Zrotation Yrotation Xrotation
				JOINT ltoe
				{
					OFFSET 0.041054 -0.060286 0.122042
					CHANNELS 3 Zrotation Yrotation Xrotation
					End Site
					{
						OFFSET 0.000000 0.000000 0.000000
					}
				}
			}
		}
	}
	JOINT rhip
	{
		OFFSET -0.060310 -0.090513 -0.013543
		CHANNELS 3 Zrotation Yrotation Xrotation
		JOINT rknee
		{
			OFFSET -0.043257 -0.383688 -0.004843
			CHANNELS 3 Zrotation Yrotation Xrotation
			JOINT rankle
			{
				OFFSET 0.019056 -0.420046 -0.034562
				CHANNELS 3 Zrotation Yrotation Xrotation
				JOINT rtoe
				{
					OFFSET -0.034840 -0.062106 0.130323
					CHANNELS 3 Zrotation Yrotation Xrotation
					End Site
					{
						OFFSET 0.000000 0.000000 0.000000
					}
				}
			}
		}
	}
	JOINT lowerback
	{
		OFFSET 0.004439 0.124404 -0.038385
		CHANNELS 3 Zrotation Yrotation Xrotation
		JOINT upperback
		{
			OFFSET 0.004488 0.137956 0.026820
			CHANNELS 3 Zrotation Yrotation Xrotation
			JOINT chest
			{
				OFFSET -0.002265 0.056032 0.002855
				CHANNELS 3 Zrotation Yrotation Xrotation
				JOINT lowerneck
				{
					OFFSET -0.013390 0.211636 -0.033468
					CHANNELS 3 Zrotation Yrotation Xrotation
					JOINT upperneck
					{
						OFFSET 0.010113 0.088937 0.050410
						CHANNELS 3 Zrotation Yrotation Xrotation
						End Site
						{
							OFFSET 0.000000 0.000000 0.000000
						}
					}
				}
				JOINT lclavicle
				{
					OFFSET 0.071702 0.114000 -0.018898
					CHANNELS 3 Zrotation Yrotation Xrotation
					JOINT lshoulder
					{
						OFFSET 0.122921 0.045205 -0.019046
						CHANNELS 3 Zrotation Yrotation Xrotation
						JOINT lelbow
						{
							OFFSET 0.255332 -0.015649 -0.022946
							CHANNELS 3 Zrotation Yrotation Xrotation
							JOINT lwrist
							{
								OFFSET 0.265709 0.012698 -0.007375
								CHANNELS 3 Zrotation Yrotation Xrotation
								End Site
								{
									OFFSET 0.000000 0.000000 0.000000
								}
							}
						}
					}
				}
				JOINT rclavicle
				{
					OFFSET -0.082954 0.112472 -0.023707
					CHANNELS 3 Zrotation Yrotation Xrotation
					JOINT rshoulder
					{
						OFFSET -0.113228 0.046853 -0.008472
						CHANNELS 3 Zrotation Yrotation Xrotation
						JOINT relbow
						{
							OFFSET -0.260127 -0.014369 -0.031269
							CHANNELS 3 Zrotation Yrotation Xrotation
							JOINT rwrist
							{
								OFFSET -0.269108 0.006794 -0.006027
								CHANNELS 3 Zrotation Yrotation Xrotation
								End Site
								{
									OFFSET 0.000000 0.000000 0.000000
								}
							}
						}
					}
				}
			}
		}
	}
}
MOTION
Frames: 10
Frame Time: 0.033333
-0.234354 0.724014 0.792221 0.275033 -0.034172 90.657464 14.285447 7.298224 -39.802082 -4.698009 12.437866 66.666450 2.108689 12.524916 -37.644714 0.000000 -0.000000 0.000000 -7.359441 -5.814912 -47.181946 -1.715065 -9.914143 79.464882 4.620686 -7.616011 -35.165556 0.000000 -0.000000 0.000000 -0.525870 -0.938686 33.922654 2.585017 -1.334510 -9.338088 -0.918723 -2.002463 -1.976735 4.197276 9.910094 -26.012286 -4.463309 -4.835555 19.206920 -20.129238 -21.090207 -8.260407 -20.826601 -26.328824 -0.949316 55.709754 -68.576030 -34.712985 -0.300726 -11.374079 2.289210 21.337433 24.152684 -8.528415 18.478048 34.376536 0.426741 -51.674060 63.119722 -29.650873 18.212408 7.650787 1.489696 
-0.235131 0.724105 0.791754 0.349023 0.002063 90.774066 14.393286 7.281999 -40.001115 -4.741773 12.443900 66.733727 2.088539 12.537699 -37.607305 0.000000 -0.000000 0.000000 -7.307930 -5.818563 -47.353711 -1.730268 -10.013812 79.563786 4.592827 -7.670373 -35.191128 0.000000 -0.000000 0.000000 -0.521354 -0.996841 33.856722 2.570695 -1.321584 -9.375603 -0.961694 -1.989987 -1.933773 4.149901 9.896588 -26.065924 -4.477934 -4.886295 19.192052 -20.077486 -21.066253 -8.292162 -20.823459 -26.349255 -0.984932 55.802886 -68.503428 -34.801768 -0.393362 -11.345716 2.212232 21.238560 24.158717 -8.560936 18.575088 34.440282 0.454347 -51.689493 63.080523 -29.664214 18.252120 7.643390 1.364820 
-0.235631 0.723879 0.791592 0.290373 -0.015062 90.770749 14.439713 7.356474 -39.955521 -4.756684 12.475354 66.747285 2.082241 12.519466 -37.632317 0.000000 -0.000000 0.000000 -7.285031 -5.812207 -47.373478 -1.728079 -10.013794 79.622648 4.568797 -7.642596 -35.223971 0.000000 -0.000000 0.000000 -0.566654 -0.988773 33.875321 2.527241 -1.300462 -9.363712 -0.989666 -1.961346 -1.953019 4.112856 9.896129 -26.061897 -4.493222 -4.918413 19.200569 -20.106028 -21.066690 -8.288468 -20.749667 -26.281962 -1.018905 55.804206 -68.501291 -34.832932 -0.406035 -11.326723 2.238118 21.267333 24.207286 -8.540395 18.601396 34.442627 0.456292 -51.742076 63.083029 -29.700333 18.240758 7.617090 1.409214 
-0.236397 0.723465 0.791480 0.196525 -0.076529 90.712242 14.449025 7.469976 -39.813412 -4.727602 12.498376 66.748368 2.080071 12.456337 -37.674169 0.000000 -0.000000 0.000000 -7.300608 -5.806129 -47.320031 -1.756585 -10.020545 79.693769 4.546411 -7.523414 -35.281556 0.000000 -0.000000 0.000000 -0.658573 -0.932127 33.977104 2.458294 -1.295821 -9.333272 -1.018267 -1.933356 -2.016920 4.068896 9.905316 -25.990778 -4.488165 -4.953522 19.152881 -20.182494 -21.082196 -8.280127 -20.654952 -26.191783 -1.063532 55.804776 -68.498426 -34.828742 -0.438300 -11.301628 2.309729 21.342065 24.250025 -8.501717 18.622937 34.444495 0.430457 -51.942878 63.155808 -29.821263 18.278205 7.573070 1.429843 
-0.237327 0.724126 0.791094 0.497706 0.049161 90.897209 14.610499 7.261440 -40.210488 -4.801571 12.437059 66.813715 2.053866 12.538878 -37.549555 0.000000 -0.000000 0.000000 -7.236215 -5.894595 -47.516356 -1.728105 -10.266286 79.729990 4.519045 -7.654595 -35.269351 0.000000 -0.000000 0.000000 -0.567978 -1.064575 33.829692 2.536024 -1.352633 -9.361932 -1.039241 -1.973412 -1.902546 4.073115 9.911998 -26.059239 -4.516145 -4.974414 19.222734 -20.075070 -21.058922 -8.323082 -20.710219 -26.276523 -1.091703 55.969064 -68.397466 -34.966305 -0.637558 -11.263594 2.215870 21.198670 24.202496 -8.567900 18.661030 34.520959 0.421718 -52.173334 63.108797 -30.048465 18.371225 7.601559 1.357557 
-0.237870 0.723685 0.791199 0.435227 -0.007916 90.803176 14.597583 7.325378 -40.006314 -4.765720 12.460625 66.794070 2.053384 12.495139 -37.623401 0.000000 -0.000000 0.000000 -7.264605 -5.898356 -47.389931 -1.766976 -10.266152 79.773090 4.519352 -7.541673 -35.333731 0.000000 -0.000000 0.000000 -0.646672 -0.980204 33.920408 2.503743 -1.362136 -9.325200 -1.044287 -1.975492 -1.954077 4.113575 9.915500 -25.946227 -4.504748 -5.018059 19.260742 -20.181143 -21.042031 -8.329047 -20.672238 -26.228414 -1.064349 56.024152 -68.452238 -35.050703 -0.638618 -11.245780 2.271556 21.316967 24.190447 -8.581929 18.649943 34.471387 0.463055 -52.301374 63.228215 -30.146783 18.385245 7.588884 1.433213 
-0.238399 0.723310 0.791229 0.456898 -0.045371 90.690183 14.554700 7.372891 -39.853407 -4.737827 12.379416 66.759330 2.061152 12.442464 -37.621586 0.000000 -0.000000 0.000000 -7.279066 -5.904195 -47.230021 -1.814747 -10.266183 79.790352 4.524357 -7.479688 -35.357262 0.000000 -0.000000 0.000000 -0.705649 -0.909311 34.028859 2.510233 -1.396547 -9.263865 -1.009512 -1.976375 -1.968348 4.118158 9.878239 -25.835494 -4.466154 -5.049972 19.192149 -20.175955 -21.086980 -8.325497 -20.698843 -26.225007 -1.051218 56.044793 -68.458808 -35.058089 -0.554973 -11.223401 2.237854 21.298709 24.208934 -8.597617 18.615399 34.430420 0.421315 -52.504167 63.285094 -30.322293 18.323004 7.589313 1.410895 
-0.238901 0.723256 0.791171 0.550289 -0.041137 90.640471 14.560783 7.371302 -39.830407 -4.769035 12.301592 66.738870 2.054885 12.430008 -37.588472 0.000000 -0.000000 0.000000 -7.240722 -5.896737 -47.166187 -1.815061 -10.266301 79.799377 4.524207 -7.564391 -35.376832 0.000000 -0.000000 0.000000 -0.715034 -0.903803 34.060813 2.536414 -1.409766 -9.213204 -0.985598 -1.977800 -1.940655 4.139565 9.851861 -25.762523 -4.446661 -5.081510 19.204148 -20.136156 -21.138695 -8.320770 -20.708004 -26.251966 -1.037042 55.971604 -68.480228 -34.980680 -0.574536 -11.190035 2.202447 21.260248 24.226001 -8.634879 18.588981 34.406433 0.388277 -52.685353 63.270230 -30.555519 18.326641 7.584989 1.280109 
-0.239369 0.723387 0.790971 0.647244 -0.045938 90.641870 14.582491 7.370396 -39.888155 -4.817372 12.275834 66.752801 2.062022 12.407895 -37.555324 0.000000 -0.000000 0.000000 -7.205073 -5.868575 -47.189157 -1.848469 -10.274050 79.842997 4.521423 -7.678820 -35.419453 0.000000 -0.000000 0.000000 -0.734343 -0.909938 34.048720 2.571314 -1.414144 -9.212187 -0.974624 -1.964933 -1.897481 4.178454 9.842856 -25.698024 -4.430777 -5.125988 19.321587 -20.084988 -21.171289 -8.318701 -20.707947 -26.304971 -1.009835 55.808617 -68.524287 -34.820213 -0.583822 -11.181526 2.145106 21.236433 24.214899 -8.672236 18.567132 34.401941 0.367310 -52.769461 63.265308 -30.596537 18.337423 7.582169 1.321160 
-0.239773 0.723606 0.790641 0.761571 -0.063883 90.661755 14.606692 7.351638 -39.986245 -4.873131 12.284085 66.782387 2.058894 12.372098 -37.527538 0.000000 -0.000000 0.000000 -7.217470 -5.867251 -47.247036 -1.900701 -10.327210 79.916841 4.521004 -7.758074 -35.452190 0.000000 -0.000000 0.000000 -0.752718 -0.926089 34.041018 2.606718 -1.430156 -9.253854 -0.969568 -1.983572 -1.837473 4.234174 9.858956 -25.640826 -4.443466 -5.170917 19.423265 -19.985655 -21.135629 -8.382240 -20.796136 -26.419175 -0.953553 55.650698 -68.527285 -34.650567 -0.573902 -11.184288 2.055402 21.181734 24.165373 -8.746560 18.628252 34.492460 0.406222 -52.724365 63.224997 -30.532865 18.343374 7.592664 1.322051 
